<svg width="630" height="145" viewBox="0 0 630 145" fill="none" xmlns="http://www.w3.org/2000/svg">
<path d="M124.783 86.86C124.909 86.86 124.973 87.05 124.973 87.43C124.973 87.81 124.909 88 124.783 88C122.756 88 121.141 87.9683 119.938 87.905L113.193 87.81L106.828 87.905C105.751 87.9683 104.263 88 102.363 88C102.173 88 102.078 87.81 102.078 87.43C102.078 87.05 102.173 86.86 102.363 86.86C105.149 86.86 107.018 86.5433 107.968 85.91C108.981 85.2767 109.488 83.9467 109.488 81.92L109.393 80.305L107.588 38.505L86.5925 87.335C86.4659 87.5883 86.2125 87.715 85.8325 87.715C85.4525 87.715 85.1992 87.5883 85.0725 87.335L61.4175 38.885L60.6575 77.075C60.5942 80.4317 61.1959 82.9017 62.4625 84.485C63.7292 86.0683 65.7875 86.86 68.6375 86.86C68.8275 86.86 68.9225 87.05 68.9225 87.43C68.9225 87.81 68.8275 88 68.6375 88C66.9275 88 65.5975 87.9683 64.6475 87.905L59.4225 87.81L54.1975 87.905C53.3109 87.9683 52.0125 88 50.3025 88C50.1759 88 50.1125 87.81 50.1125 87.43C50.1125 87.05 50.1759 86.86 50.3025 86.86C55.5592 86.86 58.2192 83.5983 58.2825 77.075L59.1375 34.515C57.1109 31.3483 54.3875 29.765 50.9675 29.765C50.8409 29.765 50.7775 29.575 50.7775 29.195C50.7775 28.815 50.8409 28.625 50.9675 28.625L54.7675 28.72C55.5275 28.7833 56.5092 28.815 57.7125 28.815C59.1059 28.815 60.2459 28.7833 61.1325 28.72C62.0192 28.6567 62.7159 28.625 63.2225 28.625C64.0459 28.625 64.7109 28.91 65.2175 29.48C65.7242 30.05 66.5159 31.4117 67.5925 33.565L88.6825 76.41L108.538 31C109.171 29.4167 110.121 28.625 111.388 28.625C111.768 28.625 112.274 28.6567 112.908 28.72C113.541 28.7833 114.364 28.815 115.378 28.815L120.223 28.72C120.983 28.6567 122.091 28.625 123.548 28.625C123.738 28.625 123.833 28.815 123.833 29.195C123.833 29.575 123.738 29.765 123.548 29.765C120.444 29.765 118.196 30.2717 116.803 31.285C115.473 32.2983 114.839 34.0717 114.903 36.605L116.993 80.305C117.119 82.2683 117.373 83.6933 117.753 84.58C118.133 85.4667 118.829 86.0683 119.843 86.385C120.856 86.7017 122.503 86.86 124.783 86.86ZM172.928 82.205C173.118 82.205 173.245 82.3633 173.308 82.68C173.435 82.9967 173.403 83.1867 173.213 83.25L161.528 88.95C161.402 89.0133 161.243 89.045 161.053 89.045C160.547 89.045 160.008 88.3483 159.438 86.955C158.932 85.5617 158.615 83.7883 158.488 81.635C156.272 83.915 154.023 85.72 151.743 87.05C149.463 88.38 146.93 89.045 144.143 89.045C140.217 89.045 136.923 87.62 134.263 84.77C131.603 81.8567 130.273 77.8033 130.273 72.61C130.273 68.05 131.318 64.06 133.408 60.64C135.562 57.22 138.285 54.6233 141.578 52.85C144.935 51.0133 148.355 50.095 151.838 50.095C155.195 50.095 158.267 51.0133 161.053 52.85C162.32 52.2167 163.302 51.3933 163.998 50.38C164.062 50.3167 164.157 50.285 164.283 50.285C164.41 50.285 164.537 50.3483 164.663 50.475C164.853 50.5383 164.948 50.6017 164.948 50.665V77.835C164.948 79.8617 165.17 81.3183 165.613 82.205C166.12 83.0917 166.943 83.535 168.083 83.535C168.907 83.535 170.458 83.1233 172.738 82.3L172.928 82.205ZM147.848 85.245C151.205 85.245 154.752 83.5033 158.488 80.02V60.26C158.488 57.9167 157.602 55.9533 155.828 54.37C154.055 52.7867 151.933 51.995 149.463 51.995C145.917 51.995 143.067 53.6417 140.913 56.935C138.76 60.2283 137.683 64.4717 137.683 69.665C137.683 74.415 138.57 78.215 140.343 81.065C142.18 83.8517 144.682 85.245 147.848 85.245ZM200.406 50.475C201.862 50.475 203.224 50.9183 204.491 51.805C205.757 52.6283 206.391 53.6417 206.391 54.845C206.391 55.795 206.074 56.6183 205.441 57.315C204.807 57.9483 203.952 58.265 202.876 58.265C202.242 58.265 201.704 58.17 201.261 57.98C200.817 57.7267 200.437 57.4733 200.121 57.22C199.804 56.9033 199.582 56.7133 199.456 56.65C198.949 56.1433 198.442 55.7633 197.936 55.51C197.492 55.1933 196.922 55.035 196.226 55.035C195.466 55.035 194.642 55.3517 193.756 55.985C192.869 56.555 191.539 57.8533 189.766 59.88V80.305C189.766 82.1417 189.987 83.535 190.431 84.485C190.937 85.3717 191.824 86.005 193.091 86.385C194.357 86.7017 196.257 86.86 198.791 86.86C198.981 86.86 199.076 87.05 199.076 87.43C199.076 87.81 198.981 88 198.791 88C196.701 88 195.022 87.9683 193.756 87.905L186.536 87.81L181.216 87.905C180.329 87.9683 179.126 88 177.606 88C177.416 88 177.321 87.81 177.321 87.43C177.321 87.05 177.416 86.86 177.606 86.86C179.886 86.86 181.374 86.4483 182.071 85.625C182.831 84.7383 183.211 82.965 183.211 80.305V61.78C183.211 59.69 182.957 58.2017 182.451 57.315C182.007 56.365 181.216 55.89 180.076 55.89C178.872 55.89 177.194 56.3333 175.041 57.22H174.851C174.661 57.22 174.502 57.0617 174.376 56.745C174.312 56.4283 174.376 56.2383 174.566 56.175L186.346 50.57C186.472 50.5067 186.662 50.475 186.916 50.475C187.549 50.475 188.151 51.1717 188.721 52.565C189.354 53.9583 189.702 55.795 189.766 58.075C192.362 55.1617 194.421 53.1667 195.941 52.09C197.524 51.0133 199.012 50.475 200.406 50.475ZM221.604 39.93C220.147 39.93 218.976 39.5183 218.089 38.695C217.266 37.8717 216.854 36.7317 216.854 35.275C216.854 33.8817 217.266 32.805 218.089 32.045C218.976 31.2217 220.147 30.81 221.604 30.81C222.997 30.81 224.074 31.2217 224.834 32.045C225.657 32.805 226.069 33.8817 226.069 35.275C226.069 36.7317 225.657 37.8717 224.834 38.695C224.074 39.5183 222.997 39.93 221.604 39.93ZM213.244 88C213.054 88 212.959 87.81 212.959 87.43C212.959 87.05 213.054 86.86 213.244 86.86C215.524 86.86 217.044 86.4483 217.804 85.625C218.564 84.7383 218.944 82.965 218.944 80.305V62.825C218.944 60.545 218.722 58.93 218.279 57.98C217.836 56.9667 217.044 56.46 215.904 56.46C214.827 56.46 213.466 56.8717 211.819 57.695H211.724C211.471 57.695 211.281 57.5367 211.154 57.22C211.027 56.84 211.091 56.6183 211.344 56.555L224.264 50.57L224.644 50.475C224.834 50.475 225.024 50.57 225.214 50.76C225.467 50.95 225.594 51.1717 225.594 51.425C225.594 51.8683 225.562 53.135 225.499 55.225C225.436 57.315 225.404 59.785 225.404 62.635V80.305C225.404 82.965 225.752 84.7383 226.449 85.625C227.209 86.4483 228.761 86.86 231.104 86.86C231.294 86.86 231.389 87.05 231.389 87.43C231.389 87.81 231.294 88 231.104 88C229.584 88 228.349 87.9683 227.399 87.905L222.174 87.81L216.949 87.905C215.999 87.9683 214.764 88 213.244 88ZM280.174 82.205C280.364 82.205 280.491 82.3633 280.554 82.68C280.681 82.9967 280.649 83.1867 280.459 83.25L268.774 88.95C268.648 89.0133 268.489 89.045 268.299 89.045C267.793 89.045 267.254 88.3483 266.684 86.955C266.178 85.5617 265.861 83.7883 265.734 81.635C263.518 83.915 261.269 85.72 258.989 87.05C256.709 88.38 254.176 89.045 251.389 89.045C247.463 89.045 244.169 87.62 241.509 84.77C238.849 81.8567 237.519 77.8033 237.519 72.61C237.519 68.05 238.564 64.06 240.654 60.64C242.808 57.22 245.531 54.6233 248.824 52.85C252.181 51.0133 255.601 50.095 259.084 50.095C262.441 50.095 265.513 51.0133 268.299 52.85C269.566 52.2167 270.548 51.3933 271.244 50.38C271.308 50.3167 271.403 50.285 271.529 50.285C271.656 50.285 271.783 50.3483 271.909 50.475C272.099 50.5383 272.194 50.6017 272.194 50.665V77.835C272.194 79.8617 272.416 81.3183 272.859 82.205C273.366 83.0917 274.189 83.535 275.329 83.535C276.153 83.535 277.704 83.1233 279.984 82.3L280.174 82.205ZM255.094 85.245C258.451 85.245 261.998 83.5033 265.734 80.02V60.26C265.734 57.9167 264.848 55.9533 263.074 54.37C261.301 52.7867 259.179 51.995 256.709 51.995C253.163 51.995 250.313 53.6417 248.159 56.935C246.006 60.2283 244.929 64.4717 244.929 69.665C244.929 74.415 245.816 78.215 247.589 81.065C249.426 83.8517 251.928 85.245 255.094 85.245ZM342.647 27.58C345.561 27.58 348.569 27.865 351.672 28.435C354.776 28.9417 357.246 29.67 359.082 30.62C359.589 30.8733 359.906 31.1583 360.032 31.475C360.222 31.7283 360.381 32.2033 360.507 32.9L361.552 44.395C361.552 44.585 361.394 44.7117 361.077 44.775C360.761 44.775 360.571 44.68 360.507 44.49C358.861 39.55 356.169 35.8767 352.432 33.47C348.696 31 344.199 29.765 338.942 29.765C334.319 29.765 330.297 30.8417 326.877 32.995C323.457 35.085 320.829 38.0617 318.992 41.925C317.219 45.7883 316.332 50.2533 316.332 55.32C316.332 61.21 317.472 66.625 319.752 71.565C322.032 76.505 325.104 80.4317 328.967 83.345C332.894 86.195 337.169 87.62 341.792 87.62C350.912 87.62 357.436 82.395 361.362 71.945C361.362 71.755 361.489 71.66 361.742 71.66C361.932 71.66 362.091 71.6917 362.217 71.755C362.407 71.8183 362.502 71.9133 362.502 72.04L361.172 83.535C361.046 84.295 360.887 84.8017 360.697 85.055C360.571 85.245 360.222 85.4667 359.652 85.72C353.826 88 347.872 89.14 341.792 89.14C334.129 89.14 327.732 87.62 322.602 84.58C317.472 81.4767 313.704 77.55 311.297 72.8C308.891 68.05 307.687 63.0783 307.687 57.885C307.687 51.995 309.302 46.77 312.532 42.21C315.826 37.5867 320.132 34.0083 325.452 31.475C330.836 28.8783 336.567 27.58 342.647 27.58ZM412.562 82.205C412.752 82.205 412.879 82.3633 412.942 82.68C413.069 82.9967 413.037 83.1867 412.847 83.25L401.162 88.95C401.035 89.0133 400.877 89.045 400.687 89.045C400.18 89.045 399.642 88.3483 399.072 86.955C398.565 85.5617 398.249 83.7883 398.122 81.635C395.905 83.915 393.657 85.72 391.377 87.05C389.097 88.38 386.564 89.045 383.777 89.045C379.85 89.045 376.557 87.62 373.897 84.77C371.237 81.8567 369.907 77.8033 369.907 72.61C369.907 68.05 370.952 64.06 373.042 60.64C375.195 57.22 377.919 54.6233 381.212 52.85C384.569 51.0133 387.989 50.095 391.472 50.095C394.829 50.095 397.9 51.0133 400.687 52.85C401.954 52.2167 402.935 51.3933 403.632 50.38C403.695 50.3167 403.79 50.285 403.917 50.285C404.044 50.285 404.17 50.3483 404.297 50.475C404.487 50.5383 404.582 50.6017 404.582 50.665V77.835C404.582 79.8617 404.804 81.3183 405.247 82.205C405.754 83.0917 406.577 83.535 407.717 83.535C408.54 83.535 410.092 83.1233 412.372 82.3L412.562 82.205ZM387.482 85.245C390.839 85.245 394.385 83.5033 398.122 80.02V60.26C398.122 57.9167 397.235 55.9533 395.462 54.37C393.689 52.7867 391.567 51.995 389.097 51.995C385.55 51.995 382.7 53.6417 380.547 56.935C378.394 60.2283 377.317 64.4717 377.317 69.665C377.317 74.415 378.204 78.215 379.977 81.065C381.814 83.8517 384.315 85.245 387.482 85.245ZM484.214 86.86C484.404 86.86 484.499 87.05 484.499 87.43C484.499 87.81 484.404 88 484.214 88C482.631 88 481.396 87.9683 480.509 87.905L475.189 87.81L469.964 87.905C469.014 87.9683 467.779 88 466.259 88C466.133 88 466.069 87.81 466.069 87.43C466.069 87.05 466.133 86.86 466.259 86.86C468.603 86.86 470.154 86.4483 470.914 85.625C471.674 84.7383 472.054 82.965 472.054 80.305V65.675C472.054 62.0017 471.389 59.31 470.059 57.6C468.793 55.8267 466.829 54.94 464.169 54.94C462.333 54.94 460.496 55.415 458.659 56.365C456.823 57.315 455.208 58.6133 453.814 60.26V61.495V80.305C453.814 82.965 454.163 84.7383 454.859 85.625C455.619 86.4483 457.171 86.86 459.514 86.86C459.704 86.86 459.799 87.05 459.799 87.43C459.799 87.81 459.704 88 459.514 88C457.994 88 456.759 87.9683 455.809 87.905L450.584 87.81L445.359 87.905C444.409 87.9683 443.174 88 441.654 88C441.464 88 441.369 87.81 441.369 87.43C441.369 87.05 441.464 86.86 441.654 86.86C443.934 86.86 445.454 86.4483 446.214 85.625C446.974 84.7383 447.354 82.965 447.354 80.305V65.675C447.354 62.0017 446.721 59.31 445.454 57.6C444.188 55.8267 442.224 54.94 439.564 54.94C437.791 54.94 436.018 55.3833 434.244 56.27C432.471 57.1567 430.856 58.3917 429.399 59.975V80.305C429.399 82.965 429.748 84.7383 430.444 85.625C431.204 86.4483 432.756 86.86 435.099 86.86C435.289 86.86 435.384 87.05 435.384 87.43C435.384 87.81 435.289 88 435.099 88C433.579 88 432.344 87.9683 431.394 87.905L426.169 87.81L420.849 87.905C419.963 87.9683 418.759 88 417.239 88C417.049 88 416.954 87.81 416.954 87.43C416.954 87.05 417.049 86.86 417.239 86.86C419.519 86.86 421.008 86.4483 421.704 85.625C422.464 84.7383 422.844 82.965 422.844 80.305V61.78C422.844 59.69 422.591 58.2017 422.084 57.315C421.641 56.365 420.849 55.89 419.709 55.89C418.506 55.89 416.828 56.3333 414.674 57.22H414.484C414.294 57.22 414.136 57.0617 414.009 56.745C413.946 56.4283 414.009 56.2383 414.199 56.175L425.979 50.57C426.106 50.5067 426.296 50.475 426.549 50.475C427.183 50.475 427.784 51.2033 428.354 52.66C428.988 54.0533 429.336 55.89 429.399 58.17C433.769 52.9133 438.424 50.285 443.364 50.285C446.214 50.285 448.526 51.0133 450.299 52.47C452.073 53.8633 453.181 55.9217 453.624 58.645C458.248 53.0717 463.061 50.285 468.064 50.285C471.421 50.285 473.986 51.2667 475.759 53.23C477.596 55.1933 478.514 58.1067 478.514 61.97V80.305C478.514 82.1417 478.641 83.535 478.894 84.485C479.211 85.3717 479.749 86.005 480.509 86.385C481.333 86.7017 482.568 86.86 484.214 86.86ZM499.089 39.93C497.633 39.93 496.461 39.5183 495.574 38.695C494.751 37.8717 494.339 36.7317 494.339 35.275C494.339 33.8817 494.751 32.805 495.574 32.045C496.461 31.2217 497.633 30.81 499.089 30.81C500.483 30.81 501.559 31.2217 502.319 32.045C503.143 32.805 503.554 33.8817 503.554 35.275C503.554 36.7317 503.143 37.8717 502.319 38.695C501.559 39.5183 500.483 39.93 499.089 39.93ZM490.729 88C490.539 88 490.444 87.81 490.444 87.43C490.444 87.05 490.539 86.86 490.729 86.86C493.009 86.86 494.529 86.4483 495.289 85.625C496.049 84.7383 496.429 82.965 496.429 80.305V62.825C496.429 60.545 496.208 58.93 495.764 57.98C495.321 56.9667 494.529 56.46 493.389 56.46C492.313 56.46 490.951 56.8717 489.304 57.695H489.209C488.956 57.695 488.766 57.5367 488.639 57.22C488.513 56.84 488.576 56.6183 488.829 56.555L501.749 50.57L502.129 50.475C502.319 50.475 502.509 50.57 502.699 50.76C502.953 50.95 503.079 51.1717 503.079 51.425C503.079 51.8683 503.048 53.135 502.984 55.225C502.921 57.315 502.889 59.785 502.889 62.635V80.305C502.889 82.965 503.238 84.7383 503.934 85.625C504.694 86.4483 506.246 86.86 508.589 86.86C508.779 86.86 508.874 87.05 508.874 87.43C508.874 87.81 508.779 88 508.589 88C507.069 88 505.834 87.9683 504.884 87.905L499.659 87.81L494.434 87.905C493.484 87.9683 492.249 88 490.729 88ZM515.29 88C515.163 88 515.1 87.81 515.1 87.43C515.1 87.05 515.163 86.86 515.29 86.86C517.633 86.86 519.153 86.4483 519.85 85.625C520.61 84.7383 520.99 82.965 520.99 80.305L521.085 31.475C521.085 29.195 520.863 27.58 520.42 26.63C519.976 25.6167 519.216 25.11 518.14 25.11C517.063 25.11 515.701 25.5217 514.055 26.345H513.865C513.675 26.345 513.516 26.1867 513.39 25.87C513.263 25.5533 513.295 25.3633 513.485 25.3L526.215 19.22L526.595 19.125C526.848 19.125 527.101 19.22 527.355 19.41C527.608 19.6 527.735 19.8217 527.735 20.075V80.305C527.735 82.965 528.083 84.7383 528.78 85.625C529.54 86.4483 531.06 86.86 533.34 86.86C533.593 86.86 533.72 87.05 533.72 87.43C533.72 87.81 533.593 88 533.34 88C531.883 88 530.711 87.9683 529.825 87.905L524.315 87.81L518.995 87.905C518.108 87.9683 516.873 88 515.29 88ZM582.43 82.205C582.62 82.205 582.747 82.3633 582.81 82.68C582.937 82.9967 582.905 83.1867 582.715 83.25L571.03 88.95C570.904 89.0133 570.745 89.045 570.555 89.045C570.049 89.045 569.51 88.3483 568.94 86.955C568.434 85.5617 568.117 83.7883 567.99 81.635C565.774 83.915 563.525 85.72 561.245 87.05C558.965 88.38 556.432 89.045 553.645 89.045C549.719 89.045 546.425 87.62 543.765 84.77C541.105 81.8567 539.775 77.8033 539.775 72.61C539.775 68.05 540.82 64.06 542.91 60.64C545.064 57.22 547.787 54.6233 551.08 52.85C554.437 51.0133 557.857 50.095 561.34 50.095C564.697 50.095 567.769 51.0133 570.555 52.85C571.822 52.2167 572.804 51.3933 573.5 50.38C573.564 50.3167 573.659 50.285 573.785 50.285C573.912 50.285 574.039 50.3483 574.165 50.475C574.355 50.5383 574.45 50.6017 574.45 50.665V77.835C574.45 79.8617 574.672 81.3183 575.115 82.205C575.622 83.0917 576.445 83.535 577.585 83.535C578.409 83.535 579.96 83.1233 582.24 82.3L582.43 82.205ZM557.35 85.245C560.707 85.245 564.254 83.5033 567.99 80.02V60.26C567.99 57.9167 567.104 55.9533 565.33 54.37C563.557 52.7867 561.435 51.995 558.965 51.995C555.419 51.995 552.569 53.6417 550.415 56.935C548.262 60.2283 547.185 64.4717 547.185 69.665C547.185 74.415 548.072 78.215 549.845 81.065C551.682 83.8517 554.184 85.245 557.35 85.245Z" fill="black"/>
<path d="M231.555 125C230.715 125 229.955 124.72 229.275 124.16C228.595 123.56 228.255 122.74 228.255 121.7V104.12C228.255 103.2 228.555 102.46 229.155 101.9C229.795 101.3 230.535 101 231.375 101H237.015C238.895 101 240.555 101.52 241.995 102.56C243.435 103.56 244.155 105 244.155 106.88C244.155 107.88 243.935 108.82 243.495 109.7C243.095 110.54 242.555 111.18 241.875 111.62C243.035 112.02 243.955 112.76 244.635 113.84C245.315 114.88 245.655 116.12 245.655 117.56C245.655 119.96 244.935 121.8 243.495 123.08C242.055 124.36 240.255 125 238.095 125H231.555ZM233.895 121.34H238.095C239.375 121.34 240.295 120.96 240.855 120.2C241.455 119.4 241.755 118.54 241.755 117.62C241.755 116.78 241.475 115.98 240.915 115.22C240.355 114.46 239.495 114.08 238.335 114.08H233.655C232.775 114.08 232.335 114.54 232.335 115.46V119.78C232.335 120.82 232.855 121.34 233.895 121.34ZM233.655 110.72H237.135C238.135 110.72 238.895 110.38 239.415 109.7C239.935 109.02 240.195 108.3 240.195 107.54C240.195 106.82 239.935 106.16 239.415 105.56C238.935 104.92 238.175 104.6 237.135 104.6H233.955C232.875 104.6 232.335 105.12 232.335 106.16V109.34C232.335 110.26 232.775 110.72 233.655 110.72ZM261.216 125.6C258.896 125.6 256.776 125.06 254.856 123.98C252.976 122.86 251.476 121.36 250.356 119.48C249.236 117.56 248.676 115.4 248.676 113C248.676 110.48 249.236 108.28 250.356 106.4C251.476 104.52 252.976 103.06 254.856 102.02C256.776 100.94 258.896 100.4 261.216 100.4C263.536 100.4 265.616 100.94 267.456 102.02C269.336 103.06 270.816 104.52 271.896 106.4C273.016 108.28 273.576 110.48 273.576 113C273.576 115.4 273.016 117.56 271.896 119.48C270.816 121.36 269.336 122.86 267.456 123.98C265.616 125.06 263.536 125.6 261.216 125.6ZM261.216 121.94C262.816 121.94 264.216 121.54 265.416 120.74C266.656 119.9 267.616 118.8 268.296 117.44C268.976 116.08 269.316 114.6 269.316 113C269.316 110.44 268.556 108.32 267.036 106.64C265.516 104.96 263.576 104.12 261.216 104.12C258.816 104.12 256.856 104.96 255.336 106.64C253.816 108.32 253.056 110.44 253.056 113C253.056 114.6 253.396 116.08 254.076 117.44C254.756 118.8 255.716 119.9 256.956 120.74C258.196 121.54 259.616 121.94 261.216 121.94ZM294.026 102.68C294.026 102.04 294.246 101.56 294.686 101.24C295.126 100.88 295.606 100.7 296.126 100.7C296.646 100.7 297.106 100.86 297.506 101.18C297.946 101.5 298.166 102 298.166 102.68V115.82C298.166 118.18 297.666 120.08 296.666 121.52C295.666 122.96 294.386 124 292.826 124.64C291.266 125.28 289.626 125.6 287.906 125.6C285.986 125.6 284.246 125.28 282.686 124.64C281.166 124 279.966 122.96 279.086 121.52C278.206 120.04 277.766 118.12 277.766 115.76V102.68C277.766 102 277.986 101.52 278.426 101.24C278.866 100.92 279.346 100.76 279.866 100.76C280.386 100.76 280.846 100.92 281.246 101.24C281.686 101.52 281.906 102 281.906 102.68V115.76C281.906 117.88 282.426 119.44 283.466 120.44C284.546 121.4 286.026 121.88 287.906 121.88C289.586 121.88 291.026 121.4 292.226 120.44C293.426 119.44 294.026 117.9 294.026 115.82V102.68ZM310.748 125.6C310.108 125.6 309.588 125.42 309.188 125.06C308.828 124.7 308.648 124.24 308.648 123.68V106.22C308.648 105.22 308.128 104.72 307.088 104.72H303.308C302.068 104.72 301.448 104.1 301.448 102.86C301.448 101.62 302.068 101 303.308 101H318.128C318.688 101 319.148 101.18 319.508 101.54C319.868 101.86 320.048 102.3 320.048 102.86C320.048 103.42 319.868 103.88 319.508 104.24C319.148 104.56 318.688 104.72 318.128 104.72H314.408C313.368 104.72 312.848 105.22 312.848 106.22V123.68C312.848 124.24 312.648 124.7 312.248 125.06C311.888 125.42 311.388 125.6 310.748 125.6ZM325.752 125.6C325.232 125.6 324.752 125.42 324.312 125.06C323.872 124.74 323.652 124.26 323.652 123.62V102.68C323.652 102 323.872 101.5 324.312 101.18C324.752 100.86 325.232 100.7 325.752 100.7C326.312 100.7 326.792 100.86 327.192 101.18C327.632 101.5 327.852 102 327.852 102.68V123.62C327.852 124.26 327.632 124.74 327.192 125.06C326.792 125.42 326.312 125.6 325.752 125.6ZM353.768 127.1C353.288 127.1 352.868 126.92 352.508 126.56L350.468 124.34C348.748 125.18 346.888 125.6 344.888 125.6C342.568 125.6 340.448 125.06 338.528 123.98C336.648 122.86 335.148 121.36 334.028 119.48C332.908 117.56 332.348 115.4 332.348 113C332.348 110.48 332.908 108.28 334.028 106.4C335.148 104.52 336.648 103.06 338.528 102.02C340.448 100.94 342.568 100.4 344.888 100.4C347.208 100.4 349.288 100.94 351.128 102.02C353.008 103.06 354.488 104.52 355.568 106.4C356.688 108.28 357.248 110.48 357.248 113C357.248 114.8 356.928 116.48 356.288 118.04C355.688 119.56 354.828 120.88 353.708 122L355.208 123.38C355.728 123.9 355.988 124.42 355.988 124.94C355.988 125.42 355.808 125.88 355.448 126.32C355.008 126.84 354.448 127.1 353.768 127.1ZM344.888 121.94C345.848 121.94 346.748 121.78 347.588 121.46L345.608 119.54C345.088 119.06 344.828 118.5 344.828 117.86C344.828 117.34 344.988 116.9 345.308 116.54C345.828 116.1 346.368 115.88 346.928 115.88C347.488 115.88 347.948 116.06 348.308 116.42L350.828 119.18C352.268 117.46 352.988 115.4 352.988 113C352.988 110.44 352.228 108.32 350.708 106.64C349.188 104.96 347.248 104.12 344.888 104.12C342.488 104.12 340.528 104.96 339.008 106.64C337.488 108.32 336.728 110.44 336.728 113C336.728 114.6 337.068 116.08 337.748 117.44C338.428 118.8 339.388 119.9 340.628 120.74C341.868 121.54 343.288 121.94 344.888 121.94ZM377.405 102.68C377.405 102.04 377.625 101.56 378.065 101.24C378.505 100.88 378.985 100.7 379.505 100.7C380.025 100.7 380.485 100.86 380.885 101.18C381.325 101.5 381.545 102 381.545 102.68V115.82C381.545 118.18 381.045 120.08 380.045 121.52C379.045 122.96 377.765 124 376.205 124.64C374.645 125.28 373.005 125.6 371.285 125.6C369.365 125.6 367.625 125.28 366.065 124.64C364.545 124 363.345 122.96 362.465 121.52C361.585 120.04 361.145 118.12 361.145 115.76V102.68C361.145 102 361.365 101.52 361.805 101.24C362.245 100.92 362.725 100.76 363.245 100.76C363.765 100.76 364.225 100.92 364.625 101.24C365.065 101.52 365.285 102 365.285 102.68V115.76C365.285 117.88 365.805 119.44 366.845 120.44C367.925 121.4 369.405 121.88 371.285 121.88C372.965 121.88 374.405 121.4 375.605 120.44C376.805 119.44 377.405 117.9 377.405 115.82V102.68ZM390.227 125C389.227 125 388.427 124.7 387.827 124.1C387.227 123.5 386.927 122.7 386.927 121.7V104.12C386.927 103.2 387.227 102.46 387.827 101.9C388.467 101.3 389.207 101 390.047 101H399.107C399.787 101 400.267 101.18 400.547 101.54C400.867 101.86 401.027 102.28 401.027 102.8C401.027 103.28 400.847 103.7 400.487 104.06C400.167 104.42 399.707 104.6 399.107 104.6H392.687C391.647 104.6 391.127 105.12 391.127 106.16V109.46C391.127 110.5 391.607 111.02 392.567 111.02H398.507C399.187 111.02 399.667 111.2 399.947 111.56C400.267 111.92 400.427 112.34 400.427 112.82C400.427 113.26 400.247 113.68 399.887 114.08C399.567 114.44 399.107 114.62 398.507 114.62H392.567C391.607 114.62 391.127 115.12 391.127 116.12V119.78C391.127 120.82 391.627 121.34 392.627 121.34H399.707C400.387 121.34 400.867 121.54 401.147 121.94C401.467 122.3 401.627 122.72 401.627 123.2C401.627 123.68 401.447 124.1 401.087 124.46C400.767 124.82 400.307 125 399.707 125H390.227Z" fill="black"/>
</svg>
